<svg width="100" height="100" viewBox="0 0 100 100" fill="none" xmlns="http://www.w3.org/2000/svg">
<circle cx="50" cy="50" r="49" stroke="white" stroke-width="2"/>
<path d="M67.306 38V38.68C66.8073 38.9067 66.2747 39.3487 65.708 40.006C65.1413 40.6633 64.654 41.6833 64.246 43.066L58.364 62.106C58.1373 62.0833 57.8993 62.072 57.65 62.072C57.4007 62.0493 57.14 62.038 56.868 62.038C56.6413 62.038 56.392 62.0493 56.12 62.072C55.8707 62.072 55.6327 62.0833 55.406 62.106L48.266 40.38C48.062 39.7453 47.8013 39.3147 47.484 39.088C47.1893 38.8387 46.8493 38.7027 46.464 38.68V38C47.1667 38.0227 47.994 38.0453 48.946 38.068C49.898 38.0907 50.8613 38.102 51.836 38.102C52.856 38.102 53.8193 38.0907 54.726 38.068C55.6327 38.0453 56.3693 38.0227 56.936 38V38.68C56.2333 38.7027 55.6893 38.782 55.304 38.918C54.9187 39.054 54.692 39.326 54.624 39.734C54.5787 40.1193 54.692 40.72 54.964 41.536L59.69 55.986L58.806 57.72L62.444 46.126C63.0333 44.2673 63.3167 42.8053 63.294 41.74C63.2713 40.652 62.9993 39.8813 62.478 39.428C61.9793 38.952 61.2653 38.7027 60.336 38.68V38C61.1747 38.0227 61.9227 38.0453 62.58 38.068C63.26 38.0907 63.9627 38.102 64.688 38.102C65.164 38.102 65.6287 38.0907 66.082 38.068C66.558 38.0453 66.966 38.0227 67.306 38ZM42.894 38V38.68C42.4633 38.748 42.1687 38.9293 42.01 39.224C41.8513 39.5187 41.7947 39.8813 41.84 40.312C41.908 40.72 42.01 41.128 42.146 41.536L47.28 56.326L46.362 57.652L50.578 45.786L51.054 46.738L45.784 62.106C45.5573 62.0833 45.308 62.072 45.036 62.072C44.7867 62.0493 44.5373 62.038 44.288 62.038C44.0387 62.038 43.7893 62.0493 43.54 62.072C43.2907 62.072 43.0527 62.0833 42.826 62.106L35.074 40.856C34.7793 40.04 34.4393 39.4847 34.054 39.19C33.6687 38.8727 33.3173 38.7027 33 38.68V38C33.7253 38.0227 34.598 38.0453 35.618 38.068C36.638 38.0907 37.6127 38.102 38.542 38.102C39.4713 38.102 40.31 38.0907 41.058 38.068C41.806 38.0453 42.418 38.0227 42.894 38Z" fill="white"/>
</svg>
