<svg width="24" height="24" viewBox="0 0 24 24" fill="none" xmlns="http://www.w3.org/2000/svg">
<g clip-path="url(#clip0_41_312)">
<path d="M12 2C17.514 2 22 6.486 22 12C22 17.514 17.514 22 12 22C6.486 22 2 17.514 2 12C2 6.486 6.486 2 12 2ZM12 0C5.373 0 0 5.373 0 12C0 18.627 5.373 24 12 24C18.627 24 24 18.627 24 12C24 5.373 18.627 0 12 0ZM12 6C8.687 6 6 8.686 6 12C6 15.313 8.687 18 12 18C15.313 18 18 15.313 18 12C18 8.686 15.313 6 12 6ZM16.942 11.72C15.654 11.509 14.47 11.497 13.391 11.684C13.268 11.402 13.142 11.122 13.007 10.844C14.161 10.344 15.09 9.664 15.781 8.803C16.456 9.6 16.879 10.613 16.942 11.72ZM15.021 8.08C14.417 8.857 13.587 9.471 12.529 9.92C12.02 8.99 11.439 8.082 10.784 7.201C11.174 7.102 11.58 7.043 12 7.043C13.139 7.043 14.184 7.433 15.021 8.08ZM9.764 7.583C10.43 8.454 11.019 9.352 11.534 10.273C10.317 10.63 8.868 10.815 7.19 10.827C7.537 9.409 8.49 8.229 9.764 7.583ZM7.043 12L7.051 11.873C8.974 11.87 10.635 11.648 12.026 11.211C12.143 11.448 12.255 11.688 12.361 11.927C10.671 12.456 9.278 13.538 8.192 15.167C7.475 14.307 7.043 13.203 7.043 12ZM8.957 15.905C9.941 14.361 11.199 13.356 12.758 12.892C13.221 14.102 13.562 15.347 13.779 16.622C12.104 17.267 10.303 16.955 8.957 15.905ZM14.751 16.12C14.533 14.943 14.211 13.793 13.791 12.671C14.729 12.539 15.762 12.573 16.891 12.769C16.672 14.163 15.876 15.366 14.751 16.12Z" fill="white"/>
</g>
<defs>
<clipPath id="clip0_41_312">
<rect width="24" height="24" fill="white"/>
</clipPath>
</defs>
</svg>
